<svg fill="white" xmlns="http://www.w3.org/2000/svg" viewBox="0 0 40 40"><path d="M35.7,36.6H4.3C3.6,36.6,3,36,3,35.3V34c0-0.7,0.6-1.3,1.3-1.3h31.5c0.7,0,1.3,0.6,1.3,1.3v1.3C37,36.1,36.4,36.6,35.7,36.6 z M21.4,28.3c-0.4,0.4-0.9,0.6-1.5,0.6s-1.1-0.2-1.5-0.6L8,18c-0.4-0.4-0.6-0.9-0.6-1.5S7.6,15.4,8,15l1.2-1.2 c0.4-0.4,0.9-0.6,1.5-0.6s1.1,0.2,1.5,0.6l4.7,4.7V7.3c0-0.6,0.2-1,0.6-1.4c0.4-0.3,0.8-0.5,1.4-0.5h2c0.6,0,1.1,0.2,1.5,0.5 C22.8,6.3,23,6.8,23,7.3v11.2l4.7-4.7c0.4-0.4,0.9-0.6,1.5-0.6s1.1,0.2,1.5,0.6l1.2,1.2c0.4,0.4,0.6,0.9,0.6,1.5s-0.2,1.1-0.6,1.5 L21.4,28.3z"></path></svg>